<svg viewBox="2.79 6.36 18.21 10.35" fill="none" xmlns="http://www.w3.org/2000/svg">
<path d="M9.12114 6.35938H11.5234V7.4479C11.5234 9.3391 10.0736 10.8896 8.22471 11.0508H6.07396C5.87387 10.6026 5.78125 10.1418 5.78125 9.69355C5.78125 7.93613 7.19793 6.35938 9.12114 6.35938Z" fill="black"/>
<path d="M21.0004 11.0508H15.5292C13.6803 10.8896 12.2305 9.3391 12.2305 7.4479V6.35938H18.9114L21.0004 11.0508Z" fill="black"/>
<path d="M11.5234 15.6338V16.7121H4.87905L2.79004 12.0195H8.00169C9.95463 12.0687 11.5234 13.6683 11.5234 15.6338Z" fill="black"/>
<path d="M18.0081 13.3768C18.0081 15.1342 16.5914 16.7121 14.6682 16.7121H12.2305V15.6338C12.2305 13.6683 13.7981 12.0687 15.7522 12.0195H17.7154C17.9155 12.4677 18.0081 12.9285 18.0081 13.3768Z" fill="black"/>
</svg>
